# xmcd
# 
# Track frame offsets:
#     150
#     39700
#     70009
#     108061
#     165736
#     191146
#     212357
# 
# Disc length: 3052
# 
# Revision: 1
# Processed by: cddbd v1.5.2PL0 Copyright (c) Steve Scherf et al.
# Submitted via: BonkEnc v1.0.8
# 
DISCID=580bea07
DTITLE=Myron Walden - Higher Ground
DYEAR=2001
DGENRE=Contemporary Jazz
TTITLE0=Solid
TTITLE1=Page one
TTITLE2=Slow and steady
TTITLE3=You dig
TTITLE4=Higher ground
TTITLE5=When time stood still
TTITLE6=High above the clouds
EXTD=YEAR: 2001
EXTT0=
EXTT1=
EXTT2=
EXTT3=
EXTT4=
EXTT5=
EXTT6=
PLAYORDER=
